<?xml version="1.0" standalone="no"?>
<!DOCTYPE svg PUBLIC "-//W3C//DTD SVG 20010904//EN"
 "http://www.w3.org/TR/2001/REC-SVG-20010904/DTD/svg10.dtd">
<svg version="1.0" xmlns="http://www.w3.org/2000/svg"
 width="4000.000000pt" height="4000.000000pt" viewBox="0 0 4000.000000 4000.000000"
 preserveAspectRatio="xMidYMid meet">

<g transform="translate(0.000000,4000.000000) scale(0.100000,-0.100000)"
fill="#000000" stroke="none">
<path d="M20125 34793 c-16 -2 -66 -11 -110 -19 -160 -32 -299 -153 -389 -340
-23 -48 -35 -212 -46 -649 -6 -220 -15 -544 -20 -720 -5 -176 -14 -689 -20
-1140 -21 -1685 -31 -2318 -40 -2620 -25 -805 -29 -1003 -21 -1060 14 -90 66
-241 98 -281 64 -80 120 -137 153 -155 19 -11 50 -30 67 -43 48 -35 238 -69
318 -57 126 19 187 35 218 57 18 13 48 32 67 43 39 21 150 133 150 151 0 6 13
30 29 53 16 23 34 60 40 82 17 61 30 298 41 760 6 231 15 584 20 785 5 201 14
806 20 1345 12 1158 24 1820 46 2532 8 287 14 579 12 650 -7 259 -88 412 -288
548 -56 38 -79 46 -173 64 -59 12 -116 20 -125 20 -9 -1 -30 -4 -47 -6z"/>
<path d="M12605 32986 c-99 -32 -181 -80 -232 -136 -45 -49 -103 -125 -103
-135 0 -5 -14 -39 -30 -74 -58 -121 -60 -269 -7 -403 14 -35 31 -90 37 -123 7
-33 23 -81 36 -107 13 -26 31 -79 39 -118 8 -39 26 -92 39 -118 13 -26 29 -74
36 -107 6 -33 25 -89 41 -125 15 -36 35 -95 44 -133 8 -37 25 -89 38 -115 13
-26 30 -76 36 -112 7 -35 24 -86 37 -113 14 -26 32 -80 41 -120 9 -40 26 -93
40 -119 13 -26 30 -79 38 -118 8 -39 26 -92 40 -119 13 -27 31 -80 39 -119 8
-38 26 -92 39 -119 14 -27 31 -78 38 -113 6 -36 24 -90 39 -120 15 -30 33 -84
39 -120 7 -35 24 -86 37 -113 14 -26 32 -80 41 -120 9 -40 26 -93 40 -119 13
-26 30 -79 38 -118 8 -39 25 -92 38 -118 14 -26 31 -79 40 -119 9 -40 27 -94
41 -120 13 -27 30 -78 37 -113 6 -36 23 -86 36 -112 13 -26 30 -78 38 -115 9
-38 29 -97 44 -133 16 -36 35 -92 41 -125 7 -33 23 -81 36 -107 13 -26 31 -79
39 -118 8 -39 26 -92 39 -118 13 -26 31 -80 40 -121 9 -40 27 -94 40 -120 13
-26 30 -76 37 -111 6 -36 23 -86 36 -112 13 -26 30 -78 38 -115 9 -38 29 -97
44 -133 16 -36 35 -92 41 -125 7 -33 22 -78 34 -100 12 -22 30 -61 40 -88 33
-88 176 -235 245 -252 14 -3 55 -21 91 -38 62 -30 71 -32 180 -32 108 0 119 2
180 31 36 17 77 34 92 38 22 5 95 58 132 95 60 62 84 95 124 174 l47 92 0 160
c0 158 0 161 -32 230 -17 39 -36 97 -43 130 -7 33 -23 81 -36 107 -13 26 -31
79 -39 118 -8 39 -26 92 -39 118 -13 26 -31 80 -40 121 -9 40 -27 94 -40 120
-13 25 -29 73 -36 106 -7 33 -25 89 -40 125 -15 36 -33 92 -40 125 -7 33 -23
82 -37 108 -13 26 -31 80 -40 120 -9 40 -26 93 -40 119 -13 26 -30 79 -38 118
-8 39 -26 92 -39 118 -13 26 -31 80 -40 121 -9 40 -27 94 -40 120 -13 25 -29
73 -36 106 -7 33 -25 89 -40 125 -15 36 -33 92 -40 125 -7 33 -23 82 -37 108
-13 26 -31 80 -40 120 -9 40 -26 93 -40 119 -13 26 -30 80 -38 120 -9 40 -26
93 -39 118 -13 25 -31 78 -40 119 -9 41 -28 97 -41 125 -13 28 -31 82 -39 119
-9 38 -27 92 -40 120 -14 29 -32 85 -40 125 -8 40 -24 88 -35 106 -11 18 -30
72 -41 121 -11 49 -29 103 -40 120 -11 18 -27 65 -35 106 -9 40 -27 97 -40
126 -14 28 -32 82 -41 120 -8 37 -26 91 -39 119 -13 28 -32 84 -41 125 -9 41
-27 94 -40 119 -13 25 -30 78 -39 117 -8 40 -26 94 -39 120 -13 27 -30 75 -36
108 -6 33 -22 76 -35 96 -13 20 -31 53 -39 73 -18 43 -109 149 -151 176 -16
11 -40 27 -53 36 -12 9 -69 32 -125 50 -136 45 -212 45 -352 0z"/>
<path d="M27326 32969 c-32 -5 -73 -18 -90 -29 -17 -11 -49 -29 -71 -40 -70
-35 -196 -168 -216 -228 -7 -20 -22 -53 -35 -72 -12 -19 -30 -64 -39 -100 -9
-35 -27 -82 -40 -105 -13 -22 -31 -69 -40 -105 -9 -35 -27 -82 -40 -105 -13
-22 -29 -62 -35 -89 -6 -27 -26 -81 -45 -120 -19 -38 -35 -80 -35 -91 0 -12
-14 -49 -30 -81 -17 -32 -37 -86 -46 -119 -8 -33 -26 -78 -39 -100 -13 -23
-31 -70 -40 -105 -9 -36 -27 -83 -40 -105 -13 -23 -31 -70 -40 -105 -9 -35
-27 -82 -40 -105 -13 -22 -30 -69 -39 -104 -9 -35 -26 -79 -37 -97 -11 -18
-28 -64 -39 -101 -10 -38 -30 -88 -43 -113 -14 -25 -30 -67 -36 -95 -7 -27
-23 -70 -37 -94 -13 -24 -31 -71 -40 -105 -8 -34 -26 -79 -39 -101 -12 -22
-30 -69 -39 -105 -9 -35 -27 -83 -40 -105 -13 -22 -31 -68 -40 -103 -9 -35
-27 -82 -40 -105 -13 -23 -29 -67 -36 -97 -7 -30 -25 -77 -40 -105 -15 -27
-33 -72 -39 -100 -7 -27 -25 -75 -41 -105 -15 -31 -31 -74 -35 -95 -4 -22 -20
-65 -37 -95 -16 -30 -35 -81 -44 -113 -8 -32 -28 -84 -43 -115 -16 -31 -32
-75 -36 -97 -4 -22 -19 -62 -35 -90 -15 -27 -33 -75 -40 -105 -7 -30 -25 -77
-40 -105 -15 -27 -33 -75 -40 -105 -7 -30 -25 -77 -40 -105 -15 -27 -33 -75
-40 -105 -7 -30 -24 -74 -37 -97 -14 -24 -31 -70 -39 -104 -8 -33 -25 -79 -38
-102 -14 -23 -30 -64 -37 -92 -7 -27 -25 -75 -40 -105 -15 -30 -35 -84 -44
-119 -9 -36 -26 -83 -38 -105 -19 -36 -22 -57 -22 -171 0 -136 5 -157 77 -303
16 -31 146 -163 183 -185 17 -9 44 -26 62 -37 17 -12 80 -30 140 -42 114 -22
180 -18 311 16 104 26 256 154 307 256 15 29 36 65 45 80 10 14 26 53 34 88 9
35 27 82 40 105 14 23 30 65 36 92 6 28 24 75 39 105 15 30 33 78 40 105 7 28
25 75 40 105 15 30 33 78 40 105 7 28 23 68 36 90 13 23 31 70 40 105 9 36 27
83 40 105 12 22 30 68 39 103 9 35 27 82 40 105 13 23 29 67 36 97 7 30 25 78
40 105 15 28 33 73 39 100 7 28 25 75 40 105 15 30 33 77 40 104 7 27 25 74
41 105 16 31 32 74 36 96 4 22 21 69 39 105 18 36 35 83 39 105 4 22 20 63 35
90 16 28 34 75 41 105 7 30 25 78 40 105 15 28 33 75 40 105 7 30 23 73 36 96
13 23 32 72 43 110 10 38 30 89 44 114 14 25 30 69 36 97 6 29 24 77 40 105
16 29 32 71 36 93 3 22 18 60 31 85 14 25 34 76 44 113 11 38 30 88 43 111 13
22 30 66 37 96 7 30 23 73 36 96 13 23 32 73 43 113 11 40 29 86 40 104 10 18
27 61 36 97 9 35 27 82 40 105 13 22 31 69 40 105 9 35 27 82 40 105 13 22 29
63 36 90 6 28 24 73 39 100 15 28 33 75 40 105 7 30 25 80 41 110 15 30 33 75
38 101 6 25 25 76 43 115 32 67 33 72 33 204 l0 135 -52 105 c-40 82 -65 119
-114 169 -35 34 -84 74 -109 87 -25 14 -58 33 -75 44 -57 36 -229 49 -369 29z"/>
<path d="M33785 30300 c-27 -4 -79 -22 -115 -39 -36 -17 -70 -31 -77 -31 -6 0
-33 -18 -58 -40 -25 -22 -50 -40 -55 -40 -8 0 -58 -63 -107 -133 -12 -18 -33
-45 -46 -62 -13 -16 -31 -44 -40 -62 -9 -17 -25 -39 -34 -48 -10 -10 -31 -39
-48 -65 -64 -100 -95 -146 -120 -180 -45 -60 -119 -167 -138 -196 -25 -42 -62
-94 -90 -129 -13 -16 -32 -46 -42 -65 -10 -19 -32 -51 -49 -72 -30 -35 -59
-75 -93 -132 -10 -15 -28 -42 -40 -60 -13 -17 -31 -44 -40 -60 -10 -16 -32
-45 -49 -65 -17 -20 -39 -52 -49 -71 -10 -19 -30 -49 -44 -66 -14 -17 -34 -44
-44 -60 -18 -30 -38 -59 -107 -155 -22 -31 -40 -61 -40 -66 0 -5 -12 -20 -26
-34 -14 -13 -33 -37 -41 -52 -8 -16 -29 -48 -46 -71 -18 -24 -40 -56 -50 -72
-9 -16 -37 -56 -62 -89 -24 -33 -56 -80 -71 -105 -15 -25 -37 -56 -49 -70 -13
-14 -30 -39 -39 -57 -8 -17 -22 -37 -29 -45 -7 -7 -30 -38 -50 -68 -20 -30
-55 -80 -77 -110 -22 -30 -48 -68 -57 -84 -10 -16 -32 -48 -50 -72 -18 -24
-41 -61 -53 -84 -11 -23 -27 -43 -34 -46 -7 -3 -25 -27 -40 -53 -14 -27 -33
-54 -42 -62 -8 -7 -25 -31 -36 -53 -11 -23 -32 -54 -45 -71 -29 -36 -111 -152
-136 -191 -20 -33 -54 -83 -92 -134 -15 -19 -40 -55 -56 -80 -36 -55 -70 -104
-104 -150 -25 -34 -69 -99 -110 -165 -11 -17 -33 -47 -48 -66 -33 -39 -65 -86
-103 -149 -15 -25 -40 -60 -56 -78 -15 -18 -28 -37 -28 -42 0 -5 -13 -24 -29
-42 -16 -18 -38 -52 -50 -74 -12 -23 -31 -50 -42 -60 -12 -11 -29 -35 -39 -55
-10 -19 -26 -41 -35 -49 -9 -8 -26 -32 -37 -54 -12 -23 -36 -59 -54 -80 -19
-22 -34 -44 -34 -49 0 -5 -16 -27 -35 -50 -19 -22 -35 -45 -35 -51 0 -6 -16
-42 -36 -81 -27 -53 -38 -88 -43 -145 -10 -100 2 -240 25 -282 9 -18 29 -57
44 -86 28 -57 159 -197 194 -208 12 -4 39 -19 61 -35 26 -19 62 -32 105 -39
136 -21 331 -6 380 29 14 10 45 28 68 40 50 25 172 146 209 205 14 23 35 52
48 66 12 14 34 45 49 70 15 25 45 70 67 100 57 80 110 157 141 204 15 22 38
57 53 76 39 52 71 100 101 150 15 25 39 57 52 72 14 15 35 43 46 61 38 62 84
132 111 167 34 46 68 95 104 150 16 25 41 61 56 80 38 51 72 101 92 134 19 29
93 136 138 196 27 35 73 105 111 167 11 18 32 46 46 61 13 15 37 47 52 72 33
54 67 105 98 144 13 16 32 44 43 61 11 18 42 63 68 101 26 38 63 92 82 121 19
28 39 55 45 58 6 4 20 25 32 48 11 23 36 60 54 81 19 22 34 45 34 51 0 7 12
25 27 41 14 16 38 47 52 70 65 102 91 141 116 170 15 17 36 46 48 66 38 62 85
132 112 168 34 46 68 95 104 150 16 25 41 61 55 80 36 48 72 99 93 134 10 15
28 42 40 60 13 17 31 44 40 60 10 16 32 45 49 65 17 20 39 52 49 71 10 19 30
49 44 66 14 17 34 44 44 60 9 16 28 45 41 64 14 19 44 63 68 98 24 34 57 80
73 101 17 21 38 52 48 67 47 78 139 210 178 257 14 18 34 48 44 67 9 19 25 44
35 55 10 11 39 60 65 109 40 78 48 102 57 182 11 108 -1 235 -27 286 -10 18
-30 58 -46 88 -47 93 -160 196 -257 235 -31 12 -73 30 -92 38 -43 19 -178 28
-245 17z"/>
<path d="M6095 30279 c-27 -11 -71 -29 -96 -39 -65 -24 -184 -122 -225 -184
-19 -28 -40 -60 -48 -71 -21 -28 -66 -215 -66 -270 0 -67 49 -251 76 -288 13
-18 31 -47 39 -65 9 -18 31 -53 50 -78 19 -25 35 -51 35 -59 0 -7 18 -37 40
-66 22 -30 40 -58 40 -64 0 -6 13 -26 29 -45 15 -19 40 -57 55 -85 15 -27 37
-65 49 -83 66 -99 86 -132 105 -168 11 -22 28 -46 36 -53 9 -8 25 -32 35 -55
10 -22 32 -58 50 -80 17 -21 31 -45 31 -52 0 -7 14 -29 30 -48 17 -18 37 -51
46 -72 9 -22 25 -49 37 -62 20 -22 36 -47 102 -162 17 -29 42 -67 56 -84 15
-17 34 -48 43 -70 9 -21 29 -54 46 -72 16 -19 30 -40 30 -47 0 -7 18 -36 40
-66 22 -29 40 -59 40 -67 0 -7 13 -28 29 -46 15 -18 36 -49 46 -68 16 -32 38
-67 102 -162 12 -18 36 -59 52 -90 17 -31 35 -59 41 -63 6 -3 20 -25 32 -48
11 -23 32 -55 45 -71 13 -15 31 -45 39 -65 8 -20 26 -47 39 -61 13 -14 31 -41
39 -61 8 -20 26 -50 39 -65 13 -16 34 -48 45 -71 12 -23 26 -45 32 -48 6 -4
24 -33 40 -65 16 -32 34 -61 40 -65 6 -3 20 -25 32 -48 11 -23 31 -55 44 -70
13 -15 32 -47 42 -70 11 -23 33 -59 51 -81 17 -21 31 -44 31 -50 0 -6 16 -31
35 -54 19 -24 37 -54 41 -65 3 -12 18 -38 33 -57 14 -19 37 -53 51 -76 68
-116 84 -141 101 -164 11 -14 31 -47 45 -75 15 -27 40 -65 55 -83 16 -18 29
-38 29 -45 0 -7 18 -36 40 -66 22 -29 40 -58 40 -64 0 -5 12 -26 28 -46 15
-19 38 -54 52 -77 68 -116 84 -141 101 -164 11 -14 32 -51 49 -82 16 -31 34
-59 40 -63 6 -3 20 -25 32 -48 11 -23 32 -55 45 -71 13 -15 31 -45 39 -65 8
-20 26 -47 39 -61 13 -14 31 -41 40 -60 25 -57 137 -213 179 -249 74 -64 109
-91 118 -91 6 0 45 -16 85 -37 74 -36 75 -36 202 -36 l128 1 98 43 c86 39 108
54 186 132 49 49 89 94 89 100 0 7 17 44 37 82 l38 70 0 150 0 150 -38 75
c-20 41 -37 79 -37 85 0 5 -16 30 -35 54 -19 24 -35 48 -35 53 0 5 -18 35 -40
65 -22 31 -40 61 -40 67 0 6 -13 27 -29 46 -15 19 -40 58 -54 86 -14 27 -33
56 -42 64 -9 7 -23 29 -30 48 -8 18 -26 47 -40 64 -14 17 -32 46 -40 65 -8 20
-28 51 -45 69 -16 19 -30 39 -30 45 0 6 -18 36 -40 66 -22 31 -40 62 -40 69 0
7 -13 28 -29 46 -15 18 -40 56 -55 83 -15 28 -37 64 -49 82 -51 75 -67 101
-93 148 -15 28 -40 65 -55 83 -16 18 -29 38 -29 46 0 7 -18 37 -40 66 -22 29
-40 59 -40 66 0 8 -13 28 -29 46 -15 18 -40 56 -55 83 -15 28 -37 64 -49 82
-51 75 -67 101 -93 148 -15 28 -40 66 -55 85 -16 19 -29 40 -29 46 0 7 -18 36
-40 65 -22 30 -40 59 -40 66 0 7 -13 27 -29 45 -15 18 -40 56 -55 83 -15 28
-37 64 -49 81 -12 18 -31 47 -42 65 -19 33 -79 132 -120 198 -11 18 -30 47
-42 65 -12 17 -34 54 -49 81 -15 28 -40 65 -55 83 -16 18 -29 38 -29 45 0 7
-14 29 -30 49 -17 20 -37 52 -45 71 -8 19 -25 48 -38 63 -14 16 -36 52 -51 79
-15 28 -37 64 -49 82 -51 75 -67 101 -93 148 -15 28 -40 65 -55 83 -16 18 -29
38 -29 46 0 7 -18 37 -40 66 -22 29 -40 59 -40 66 0 8 -13 29 -30 47 -16 19
-38 54 -48 78 -11 24 -27 51 -36 59 -10 7 -28 35 -42 61 -13 26 -28 50 -34 54
-6 4 -22 30 -37 58 -14 29 -39 67 -54 85 -16 18 -29 39 -29 46 0 8 -18 38 -40
67 -22 30 -40 59 -40 66 0 7 -13 27 -29 45 -15 18 -40 56 -55 83 -15 28 -37
64 -49 81 -26 37 -50 77 -92 149 -51 87 -150 206 -206 247 -20 15 -40 31 -43
37 -4 5 -23 15 -44 22 -20 6 -62 24 -92 38 -47 22 -71 26 -165 28 -93 3 -118
0 -160 -18z"/>
<path d="M39248 25251 c-53 -15 -107 -35 -120 -45 -13 -9 -41 -29 -63 -44 -47
-31 -95 -79 -469 -468 -148 -153 -353 -365 -455 -469 -444 -456 -819 -840
-991 -1015 -162 -165 -501 -513 -855 -875 -301 -308 -1013 -1042 -1087 -1120
-32 -33 -58 -63 -58 -67 0 -4 -13 -22 -28 -40 -16 -18 -38 -60 -50 -93 -11
-33 -28 -78 -36 -100 -20 -53 -20 -197 0 -250 9 -22 24 -67 35 -100 10 -33 31
-76 47 -95 42 -54 144 -153 177 -173 17 -9 44 -26 61 -37 18 -12 73 -26 137
-37 100 -16 113 -16 218 0 68 10 124 24 143 36 17 11 54 33 81 50 59 35 138
113 495 482 146 151 348 360 450 464 102 105 233 239 290 299 58 60 157 162
220 226 63 65 237 242 385 395 149 153 358 366 465 475 107 109 319 326 470
481 151 155 327 335 390 399 306 312 655 673 721 748 41 45 88 111 104 145 17
36 39 66 53 72 22 10 22 12 22 201 l0 191 -25 11 c-16 7 -34 32 -49 66 -59
132 -196 247 -346 287 -124 34 -214 34 -332 0z"/>
<path d="M493 25140 c-23 -5 -56 -16 -74 -25 -18 -10 -57 -26 -87 -36 -96 -33
-219 -153 -257 -252 -14 -35 -30 -56 -48 -65 l-27 -13 0 -192 c0 -189 0 -192
22 -202 22 -10 32 -25 63 -95 16 -37 413 -491 655 -749 55 -58 170 -188 246
-276 38 -44 76 -87 84 -96 8 -10 38 -42 65 -74 28 -31 66 -73 85 -93 19 -21
69 -75 110 -121 41 -46 97 -107 124 -135 27 -28 83 -91 125 -140 105 -124 239
-276 270 -307 29 -30 73 -78 181 -199 100 -111 138 -153 206 -225 31 -33 72
-80 93 -105 58 -72 211 -245 282 -318 14 -15 67 -74 119 -132 51 -58 107 -119
124 -136 17 -17 50 -53 73 -80 80 -95 367 -419 397 -450 17 -17 49 -51 71 -76
116 -128 200 -223 275 -308 179 -204 288 -298 370 -320 25 -6 72 -20 106 -32
79 -26 169 -21 289 15 162 49 271 143 353 307 36 70 45 99 51 165 10 103 -2
234 -24 277 -10 18 -29 55 -42 82 -29 58 -50 84 -207 265 -124 142 -170 193
-222 245 -17 17 -160 177 -319 356 -158 179 -300 339 -316 355 -26 27 -51 54
-145 156 -42 46 -276 312 -327 373 -23 27 -56 63 -73 80 -17 17 -71 76 -119
131 -48 55 -102 114 -119 131 -57 57 -199 218 -297 334 -26 30 -66 76 -90 102
-56 59 -105 113 -199 218 -41 46 -91 100 -110 120 -19 21 -57 63 -85 95 -27
31 -76 85 -108 120 -32 35 -71 80 -88 101 -39 49 -142 165 -194 218 -22 23
-74 79 -115 126 -73 82 -122 135 -179 195 -16 17 -77 86 -136 155 -257 300
-411 452 -473 466 -15 4 -56 19 -92 34 -73 32 -195 45 -267 30z"/>
<path d="M19370 24740 c-271 -21 -576 -40 -790 -50 -228 -10 -468 -28 -480
-35 -16 -10 -236 -36 -390 -45 -101 -6 -226 -21 -295 -35 -125 -25 -228 -39
-380 -50 -49 -4 -132 -18 -184 -31 -51 -14 -155 -32 -230 -40 -75 -9 -180 -27
-234 -40 -54 -14 -150 -32 -214 -40 -63 -8 -149 -26 -192 -39 -42 -13 -129
-31 -195 -40 -65 -9 -142 -25 -170 -36 -28 -11 -104 -29 -169 -40 -65 -11
-140 -29 -168 -39 -27 -11 -100 -29 -162 -40 -61 -11 -139 -31 -172 -44 -33
-13 -93 -29 -133 -35 -41 -6 -99 -22 -131 -36 -32 -13 -98 -31 -148 -40 -50
-8 -115 -26 -145 -40 -29 -13 -85 -30 -124 -39 -38 -8 -97 -25 -130 -39 -32
-14 -96 -32 -140 -40 -45 -9 -104 -26 -130 -40 -27 -13 -80 -32 -119 -41 -38
-10 -84 -26 -100 -36 -17 -10 -64 -26 -105 -36 -41 -9 -96 -27 -123 -41 -26
-13 -82 -31 -125 -39 -42 -9 -95 -27 -117 -39 -22 -13 -69 -31 -105 -40 -36
-9 -83 -27 -105 -39 -22 -13 -65 -29 -95 -36 -30 -7 -80 -25 -111 -41 -31 -15
-79 -33 -105 -40 -27 -6 -72 -24 -99 -40 -28 -15 -73 -33 -100 -39 -28 -6 -66
-22 -86 -35 -21 -13 -66 -31 -100 -40 -35 -9 -80 -27 -100 -40 -20 -13 -58
-30 -86 -38 -27 -8 -74 -29 -105 -46 -30 -17 -62 -31 -70 -31 -9 0 -45 -15
-80 -33 -35 -19 -88 -42 -118 -52 -30 -10 -66 -26 -80 -36 -14 -10 -51 -28
-83 -38 -32 -11 -70 -29 -84 -41 -14 -11 -49 -27 -78 -35 -28 -9 -67 -27 -85
-40 -18 -13 -49 -30 -69 -36 -20 -6 -57 -24 -82 -40 -25 -16 -68 -36 -95 -44
-27 -8 -65 -26 -83 -39 -19 -14 -50 -31 -70 -37 -20 -6 -51 -22 -69 -36 -18
-13 -54 -31 -80 -40 -26 -9 -62 -27 -79 -40 -18 -13 -51 -30 -73 -38 -22 -8
-55 -25 -73 -39 -17 -13 -58 -34 -89 -46 -32 -12 -61 -26 -64 -32 -4 -6 -35
-23 -70 -39 -34 -16 -66 -34 -70 -40 -3 -6 -32 -22 -63 -36 -31 -14 -65 -33
-76 -43 -11 -10 -45 -28 -75 -40 -30 -12 -64 -30 -75 -40 -11 -11 -38 -26 -59
-35 -21 -9 -61 -32 -88 -51 -28 -19 -56 -34 -63 -34 -7 0 -32 -16 -55 -35 -23
-19 -48 -35 -54 -35 -7 0 -44 -20 -82 -45 -37 -25 -72 -45 -77 -45 -5 0 -30
-15 -56 -34 -25 -18 -55 -36 -66 -40 -11 -3 -33 -18 -50 -32 -16 -15 -44 -33
-61 -40 -18 -7 -45 -24 -60 -37 -16 -13 -48 -34 -71 -45 -23 -12 -45 -26 -48
-32 -4 -6 -32 -23 -64 -39 -31 -16 -63 -37 -71 -46 -8 -9 -34 -28 -59 -41 -52
-29 -132 -81 -176 -117 -16 -13 -44 -31 -61 -40 -17 -9 -37 -23 -44 -32 -8 -9
-37 -28 -64 -42 -28 -14 -65 -37 -82 -52 -17 -14 -44 -34 -60 -44 -16 -9 -56
-37 -89 -62 -33 -25 -73 -53 -89 -63 -16 -9 -48 -33 -71 -52 -23 -19 -55 -43
-71 -53 -16 -9 -56 -37 -89 -62 -33 -25 -83 -61 -112 -80 -28 -19 -53 -38 -55
-43 -1 -5 -21 -21 -43 -36 -64 -42 -210 -156 -262 -203 -20 -18 -39 -33 -44
-33 -4 0 -28 -17 -53 -37 -25 -21 -68 -56 -97 -78 -66 -51 -144 -116 -189
-155 -46 -40 -124 -104 -195 -160 -51 -40 -277 -235 -360 -311 -16 -15 -50
-45 -75 -67 -25 -22 -96 -87 -159 -144 -62 -57 -169 -153 -237 -214 -140 -126
-769 -755 -945 -944 -109 -118 -166 -181 -263 -293 -22 -27 -58 -67 -80 -90
-87 -95 -106 -116 -182 -203 -70 -81 -168 -199 -287 -343 -21 -25 -55 -65 -75
-88 -20 -23 -55 -65 -77 -93 -22 -29 -56 -71 -75 -95 -19 -23 -53 -66 -75 -95
-22 -29 -58 -75 -80 -101 -58 -70 -99 -124 -160 -209 -30 -41 -62 -84 -73 -95
-10 -11 -27 -33 -37 -50 -11 -16 -33 -46 -50 -67 -36 -44 -82 -108 -112 -157
-12 -19 -28 -40 -36 -46 -7 -5 -26 -29 -40 -52 -14 -23 -31 -44 -37 -48 -6 -3
-22 -27 -35 -53 -24 -43 -57 -91 -118 -167 -13 -16 -34 -48 -45 -71 -11 -22
-28 -46 -36 -53 -9 -8 -28 -35 -43 -62 -14 -27 -30 -49 -35 -49 -5 0 -21 -26
-35 -57 -14 -32 -37 -71 -49 -86 -13 -15 -29 -47 -35 -70 -6 -23 -24 -69 -40
-102 -79 -167 -81 -667 -3 -820 14 -27 35 -78 45 -111 10 -34 27 -68 36 -75 9
-8 26 -37 39 -64 12 -28 29 -57 38 -64 9 -8 28 -35 43 -62 14 -27 30 -49 34
-49 4 0 21 -24 39 -52 34 -58 85 -134 126 -188 14 -19 34 -48 45 -65 11 -16
40 -57 64 -90 25 -33 61 -82 80 -110 20 -27 56 -77 80 -110 25 -33 61 -84 80
-113 20 -28 40 -52 44 -52 5 0 21 -20 35 -45 15 -25 30 -45 35 -45 4 0 22 -21
39 -47 18 -27 54 -77 82 -113 27 -36 57 -76 67 -90 9 -14 30 -39 47 -57 33
-34 76 -88 157 -193 61 -79 85 -109 191 -231 46 -53 99 -115 118 -139 19 -23
51 -61 70 -84 20 -22 52 -61 72 -86 19 -25 59 -70 87 -100 61 -65 99 -107 201
-220 41 -46 91 -100 110 -120 19 -20 89 -95 155 -166 217 -234 489 -505 554
-551 45 -31 98 -56 170 -79 115 -37 177 -42 256 -20 152 42 189 56 213 79 15
13 39 31 53 38 28 15 129 121 129 135 0 5 15 33 34 64 20 32 39 80 45 114 23
124 8 327 -28 376 -10 14 -29 46 -41 70 -25 49 -119 156 -293 333 -62 62 -164
169 -227 236 -63 68 -150 160 -192 204 -43 45 -92 98 -110 117 -38 40 -176
199 -290 334 -94 112 -127 149 -175 202 -21 23 -58 68 -83 99 -25 31 -61 76
-80 100 -19 24 -53 66 -75 95 -36 46 -69 86 -156 190 -39 47 -83 107 -115 155
-15 22 -41 57 -58 77 -72 86 -186 238 -186 249 0 4 -17 28 -38 53 -74 91 -141
182 -191 261 -11 17 -31 46 -46 65 -38 51 -70 99 -101 150 -15 25 -40 59 -55
75 -60 66 -63 174 -6 243 18 22 44 59 60 83 38 60 71 108 100 144 13 17 31 44
40 61 9 17 31 49 49 71 18 22 41 54 50 69 10 16 38 56 63 89 24 33 57 79 73
101 26 39 42 59 117 152 17 20 39 48 48 62 10 14 40 54 67 90 28 36 64 86 82
113 17 26 35 47 40 47 4 0 17 14 27 31 11 17 33 48 50 68 17 20 53 65 81 101
27 36 63 81 80 100 17 19 51 60 76 90 25 30 60 72 77 92 18 20 52 62 77 94 41
52 255 298 321 369 71 77 109 118 174 191 322 359 888 925 1220 1219 43 39 97
88 121 110 103 99 356 320 439 385 50 39 92 74 275 231 19 16 87 70 150 118
110 85 164 129 248 196 20 17 55 43 77 58 65 45 104 74 145 109 74 63 144 114
240 177 25 16 56 39 70 51 27 22 106 79 155 109 31 20 69 47 145 106 25 19 66
45 91 59 25 13 51 32 59 41 8 9 35 27 60 40 25 13 52 31 59 39 8 9 34 25 58
36 25 11 59 31 76 45 44 36 164 115 175 115 5 0 27 16 49 35 23 19 46 35 51
35 6 0 31 16 56 35 25 19 63 42 83 50 21 9 47 24 58 34 11 10 40 29 64 41 24
12 62 35 84 51 22 16 44 29 50 29 5 0 36 18 69 40 33 22 66 40 73 40 7 0 32
16 55 35 23 19 48 35 55 35 7 0 37 16 66 36 30 20 68 41 84 47 17 6 51 25 77
42 26 18 59 35 73 39 15 4 49 22 77 41 28 19 56 35 63 35 7 0 35 15 61 33 27
19 65 39 85 46 20 6 44 20 54 31 10 11 48 31 85 45 38 14 74 32 80 40 6 8 42
26 80 40 38 14 74 33 80 40 7 8 37 24 68 35 30 12 68 30 83 41 15 11 47 26 71
35 24 8 60 26 82 40 21 14 63 34 93 45 29 10 65 27 79 38 14 11 50 27 81 36
30 9 72 27 92 40 20 14 58 31 85 39 26 8 64 26 85 39 20 13 61 31 91 40 30 9
70 27 88 41 19 13 57 30 85 37 29 6 75 24 102 40 28 15 76 34 107 42 31 8 70
24 86 35 16 12 62 30 102 41 41 12 78 25 84 31 13 13 46 13 46 1 0 -14 -42
-80 -66 -105 -11 -11 -63 -61 -114 -111 -114 -109 -214 -219 -551 -605 -98
-112 -212 -256 -258 -324 -8 -11 -28 -35 -44 -53 -17 -18 -40 -47 -51 -66 -30
-49 -75 -111 -118 -163 -21 -25 -38 -49 -38 -54 0 -5 -13 -24 -28 -42 -16 -18
-41 -53 -56 -78 -36 -60 -69 -108 -99 -145 -13 -16 -32 -45 -41 -63 -10 -19
-33 -54 -52 -79 -19 -24 -34 -51 -34 -58 0 -8 -13 -29 -29 -47 -15 -18 -38
-53 -50 -78 -12 -25 -31 -58 -42 -75 -33 -48 -86 -136 -114 -190 -15 -27 -46
-86 -70 -130 -24 -44 -58 -109 -75 -145 -18 -36 -40 -74 -49 -85 -10 -11 -26
-40 -35 -65 -10 -25 -28 -61 -40 -80 -13 -19 -31 -60 -41 -90 -10 -30 -28 -68
-40 -85 -13 -16 -28 -48 -35 -70 -7 -22 -28 -67 -46 -101 -19 -33 -34 -68 -34
-77 0 -8 -15 -44 -33 -79 -19 -35 -39 -85 -46 -113 -7 -27 -23 -66 -36 -86
-13 -20 -31 -63 -40 -95 -10 -33 -28 -77 -40 -100 -13 -22 -31 -70 -39 -107
-9 -37 -27 -89 -40 -116 -14 -26 -32 -79 -41 -116 -8 -38 -24 -83 -35 -101
-11 -17 -29 -73 -40 -123 -11 -51 -29 -113 -40 -138 -11 -26 -29 -86 -40 -133
-10 -47 -28 -107 -39 -134 -12 -27 -28 -92 -36 -145 -9 -53 -26 -127 -40 -166
-14 -38 -32 -117 -40 -175 -9 -58 -27 -145 -40 -195 -13 -49 -31 -144 -39
-210 -8 -66 -24 -160 -35 -210 -20 -93 -35 -212 -46 -370 -4 -49 -18 -180 -31
-290 -54 -437 -54 -1317 0 -1751 14 -111 30 -266 36 -345 12 -162 24 -252 45
-321 8 -26 21 -110 30 -185 9 -76 27 -178 41 -226 13 -49 31 -132 39 -186 8
-53 26 -131 39 -173 14 -42 32 -116 39 -164 8 -49 26 -116 40 -150 14 -33 32
-99 41 -146 8 -48 24 -105 36 -128 12 -23 28 -74 36 -113 8 -39 28 -101 44
-137 15 -36 33 -92 40 -125 6 -33 22 -78 35 -100 13 -23 31 -70 40 -105 9 -36
27 -83 40 -105 13 -23 31 -70 40 -105 9 -35 27 -82 40 -105 13 -22 29 -60 35
-85 7 -25 27 -72 46 -106 19 -33 34 -68 34 -76 0 -8 18 -50 40 -93 22 -43 40
-86 40 -95 0 -9 13 -37 30 -61 16 -24 37 -66 46 -94 9 -27 25 -59 35 -71 11
-11 30 -49 44 -84 14 -35 32 -71 40 -80 9 -10 25 -41 36 -70 11 -29 30 -67 43
-84 13 -17 33 -53 45 -81 12 -27 30 -59 40 -70 10 -11 23 -33 28 -50 6 -16 27
-54 47 -84 20 -29 36 -59 36 -67 0 -7 13 -28 29 -46 16 -18 36 -50 45 -72 9
-21 29 -54 46 -72 16 -19 30 -41 30 -48 0 -7 14 -31 31 -52 18 -22 39 -55 48
-74 9 -20 26 -49 39 -65 13 -17 37 -50 53 -75 35 -54 69 -102 104 -150 39 -53
72 -100 102 -148 16 -24 44 -63 63 -88 19 -24 51 -64 70 -89 19 -26 51 -65 70
-88 20 -23 48 -60 63 -82 56 -83 292 -361 462 -545 156 -168 165 -179 159
-194 -12 -32 -60 -30 -99 5 -11 9 -47 25 -80 34 -33 10 -82 30 -110 45 -27 15
-75 35 -106 44 -31 8 -67 24 -80 34 -13 11 -49 27 -79 37 -30 10 -71 29 -90
42 -19 13 -58 30 -86 39 -28 8 -66 26 -84 39 -18 13 -57 31 -85 40 -29 8 -64
24 -78 35 -15 12 -48 28 -74 37 -27 9 -66 28 -88 43 -22 15 -58 33 -80 40 -22
7 -55 23 -72 37 -18 13 -52 30 -75 39 -23 8 -63 27 -88 43 -25 16 -62 34 -82
40 -20 7 -48 21 -62 32 -14 11 -49 30 -78 43 -30 13 -60 31 -67 40 -7 8 -38
25 -69 36 -30 12 -68 32 -83 45 -16 13 -45 29 -66 35 -21 7 -52 23 -70 36 -18
14 -54 34 -80 45 -26 11 -57 29 -68 39 -11 11 -37 26 -56 34 -20 8 -50 27 -67
41 -17 14 -45 30 -64 36 -18 7 -49 24 -69 39 -20 16 -53 36 -75 45 -21 9 -48
24 -59 35 -11 10 -40 27 -65 38 -25 11 -62 34 -84 51 -21 17 -45 31 -52 31 -7
0 -28 13 -46 29 -18 15 -56 40 -85 54 -28 15 -54 31 -58 37 -3 6 -25 20 -48
32 -23 11 -55 32 -71 45 -15 13 -44 30 -63 38 -20 8 -50 27 -68 42 -17 16 -45
36 -61 46 -97 59 -143 89 -174 112 -50 37 -101 72 -134 92 -15 10 -46 32 -68
48 -22 17 -54 38 -70 47 -17 9 -41 27 -54 39 -13 13 -39 32 -58 43 -49 30
-111 76 -162 119 -25 20 -49 37 -54 37 -5 0 -30 18 -55 40 -25 22 -50 40 -55
40 -5 0 -30 18 -55 40 -25 22 -50 40 -55 40 -5 0 -24 13 -42 29 -30 26 -90 55
-203 98 -27 11 -75 16 -146 16 -99 0 -110 -2 -185 -36 -43 -19 -89 -38 -101
-42 -32 -9 -125 -91 -165 -144 -46 -62 -43 -56 -89 -159 -39 -90 -41 -97 -41
-200 0 -111 2 -121 59 -255 32 -76 135 -195 218 -253 28 -19 77 -54 110 -79
33 -25 73 -53 89 -62 16 -10 45 -32 65 -48 20 -17 54 -43 76 -58 22 -15 65
-45 95 -67 30 -22 76 -54 103 -71 26 -18 47 -36 47 -40 0 -5 26 -22 58 -38 32
-16 64 -37 72 -46 7 -9 30 -25 50 -35 20 -10 43 -26 50 -35 8 -9 39 -29 70
-45 31 -16 62 -36 70 -45 7 -9 30 -25 50 -35 20 -10 43 -26 50 -35 8 -9 35
-27 60 -40 25 -13 52 -31 60 -40 8 -9 35 -27 60 -40 25 -13 53 -31 60 -41 8
-9 35 -25 60 -36 25 -11 54 -28 66 -39 11 -11 39 -30 62 -42 73 -40 143 -82
175 -104 18 -12 57 -36 88 -52 30 -16 61 -36 67 -44 7 -8 27 -21 45 -28 18 -7
45 -24 62 -37 16 -14 50 -33 74 -44 24 -10 56 -29 72 -42 16 -14 45 -30 66
-36 21 -7 47 -21 58 -30 19 -17 54 -37 224 -126 35 -18 71 -40 81 -49 9 -8 32
-20 51 -27 19 -6 56 -26 83 -45 26 -18 54 -33 61 -33 7 0 35 -15 61 -33 27
-19 69 -40 94 -49 25 -8 62 -27 83 -41 21 -14 55 -31 75 -38 20 -6 52 -22 70
-36 18 -13 54 -32 80 -40 26 -9 61 -26 77 -39 17 -12 53 -31 82 -42 28 -11 64
-29 79 -41 15 -11 45 -26 68 -32 22 -6 57 -21 76 -34 19 -14 61 -33 92 -44 31
-11 76 -31 100 -44 24 -14 61 -30 83 -37 22 -7 60 -25 85 -40 25 -16 64 -33
88 -40 24 -6 63 -24 89 -40 25 -16 59 -32 77 -36 17 -3 54 -19 81 -34 28 -16
77 -36 110 -46 33 -9 75 -27 95 -40 19 -13 60 -28 90 -35 30 -6 78 -24 105
-39 28 -16 70 -34 95 -40 25 -6 68 -24 95 -40 28 -15 72 -33 99 -39 27 -7 68
-23 90 -36 23 -13 73 -31 111 -40 38 -9 87 -27 109 -40 23 -13 72 -31 109 -39
38 -9 87 -27 110 -40 23 -13 75 -31 115 -40 40 -8 92 -26 115 -40 23 -13 75
-31 115 -40 39 -8 96 -26 125 -39 28 -13 85 -31 124 -40 40 -9 90 -25 112 -36
21 -11 80 -29 129 -40 50 -11 108 -29 129 -39 21 -11 74 -28 118 -37 44 -10
105 -28 135 -40 30 -13 100 -30 155 -38 55 -9 122 -26 148 -37 26 -11 87 -30
137 -40 49 -11 113 -30 142 -41 29 -12 108 -30 174 -40 67 -10 145 -27 173
-39 29 -11 96 -27 149 -35 53 -9 131 -27 172 -40 41 -13 134 -33 205 -44 72
-11 144 -25 159 -31 48 -18 108 -29 247 -45 74 -8 172 -26 219 -40 47 -14 146
-31 220 -40 74 -8 189 -26 255 -39 66 -14 183 -30 260 -36 77 -6 194 -22 260
-35 107 -21 216 -31 520 -51 50 -3 149 -14 220 -24 201 -29 206 -29 620 -45
742 -28 1193 -35 1580 -25 918 24 1094 33 1390 70 83 10 191 21 240 25 273 19
372 29 485 50 69 13 161 26 205 30 160 12 272 27 350 46 44 10 157 28 250 39
94 11 203 29 244 40 40 11 126 27 191 35 65 8 155 26 200 40 45 13 134 31 197
40 63 8 151 26 195 40 44 14 126 32 183 40 56 8 127 23 156 35 30 11 106 30
169 41 63 11 135 29 159 40 24 11 92 28 150 38 58 11 128 29 156 41 27 12 91
30 141 40 51 10 113 28 139 39 26 11 85 28 131 36 46 9 108 27 137 40 29 13
85 31 125 40 40 8 97 26 127 39 29 14 81 30 116 36 35 6 93 24 129 40 36 16
96 36 134 45 38 9 84 24 101 35 17 11 62 27 100 35 37 9 89 27 115 40 25 13
75 31 111 40 35 9 82 27 105 40 22 13 71 31 108 39 37 9 86 27 109 40 23 13
70 31 105 40 35 9 82 27 105 40 23 14 65 30 92 37 28 6 73 24 100 39 28 16 70
34 95 40 25 6 68 24 95 40 28 15 66 31 85 35 19 4 59 20 89 37 30 17 77 37
104 45 28 8 66 25 86 38 20 12 61 31 91 40 30 10 68 27 83 37 16 11 55 28 87
38 33 10 71 27 85 38 14 12 49 28 76 37 27 9 75 32 106 51 31 19 64 34 73 34
9 0 38 14 65 31 27 17 70 37 95 45 25 7 61 25 79 38 19 14 50 31 70 37 20 6
56 24 81 40 25 16 65 35 88 43 23 9 57 26 75 39 17 14 43 28 57 32 14 4 54 24
90 45 36 21 76 41 90 45 14 4 39 17 55 30 17 12 52 32 80 44 27 12 59 30 70
40 11 10 40 26 64 35 25 10 57 28 73 41 15 13 49 31 77 40 27 8 57 25 67 36
10 11 38 29 63 40 25 11 59 30 76 43 17 13 49 32 70 41 22 9 49 25 60 35 11
10 38 27 60 36 22 9 55 29 73 45 18 16 38 29 45 29 7 0 35 15 63 33 27 17 65
41 85 52 41 24 117 71 162 102 18 12 49 32 70 43 21 12 58 36 83 55 25 19 52
35 59 35 8 0 29 13 47 29 18 15 49 36 68 46 19 10 55 33 79 52 24 18 49 33 56
33 6 0 22 12 36 26 13 14 45 36 70 49 25 13 51 31 59 40 7 9 32 26 54 37 23
11 51 30 64 41 12 11 37 30 56 41 105 65 157 103 249 177 17 15 53 40 78 55
26 16 73 49 104 74 62 48 135 102 200 147 22 15 57 41 77 58 21 16 60 48 88
70 28 22 67 54 88 70 20 17 51 39 67 50 17 10 47 32 68 49 89 71 134 108 172
141 54 46 121 100 190 155 107 84 187 151 284 240 21 19 58 52 82 72 50 43
221 189 292 251 26 23 81 74 122 112 40 39 128 122 196 185 150 141 740 730
904 904 66 70 134 141 151 159 31 31 399 449 472 536 20 24 51 60 69 80 64 74
119 140 173 205 30 38 64 78 75 91 18 22 50 61 145 179 19 24 52 65 72 92 20
27 53 69 72 94 20 25 47 62 61 82 13 20 31 40 38 45 8 4 26 26 41 48 15 22 47
67 71 100 25 33 61 83 80 112 19 28 38 53 43 55 5 1 21 21 36 43 15 22 47 67
71 100 25 33 61 83 80 112 19 28 39 54 44 57 5 3 23 30 40 59 38 63 69 108
111 162 35 44 81 114 120 181 14 24 35 54 46 66 12 13 27 39 34 58 8 19 25 51
38 72 13 20 30 62 38 95 9 32 27 87 41 122 53 134 56 519 5 635 -12 25 -30 79
-41 120 -11 41 -34 96 -51 122 -16 26 -30 53 -30 59 0 7 -18 37 -40 68 -22 30
-40 59 -40 64 0 5 -18 30 -40 57 -22 26 -40 52 -40 57 0 4 -13 23 -28 41 -16
18 -39 51 -51 73 -13 22 -34 53 -48 70 -13 16 -35 46 -48 65 -39 56 -91 131
-135 190 -22 30 -54 76 -71 103 -18 26 -35 47 -40 47 -4 0 -22 24 -39 53 -18
28 -44 67 -59 84 -14 18 -42 53 -61 78 -19 25 -51 65 -70 90 -19 24 -48 62
-65 85 -16 23 -40 56 -53 73 -12 18 -36 48 -53 67 -43 50 -107 128 -159 195
-97 123 -237 292 -303 366 -18 19 -52 59 -77 88 -155 183 -204 241 -238 277
-20 23 -71 79 -112 125 -41 46 -93 102 -115 124 -22 23 -94 99 -160 170 -159
172 -749 762 -899 900 -65 61 -135 126 -155 145 -20 19 -76 71 -124 115 -49
44 -116 106 -150 139 -34 32 -78 70 -97 85 -39 28 -142 116 -340 286 -173 150
-192 163 -290 215 l-85 45 -160 0 -160 0 -85 -45 c-100 -52 -198 -135 -243
-204 -18 -27 -39 -60 -48 -73 -20 -29 -49 -180 -49 -251 0 -75 36 -241 58
-266 10 -12 30 -42 45 -67 14 -25 59 -75 99 -112 136 -123 413 -363 448 -387
19 -13 69 -56 110 -95 42 -38 113 -104 159 -145 45 -41 102 -93 125 -115 23
-22 113 -107 200 -190 201 -190 545 -534 701 -699 66 -70 162 -171 213 -224
51 -54 139 -150 195 -216 56 -65 173 -200 260 -300 214 -244 205 -234 267
-316 51 -68 159 -200 230 -280 16 -19 39 -49 49 -66 11 -18 24 -35 31 -39 6
-4 23 -25 37 -48 14 -23 39 -58 55 -77 54 -65 103 -128 143 -185 22 -31 57
-76 78 -101 20 -25 37 -49 37 -54 0 -5 17 -29 38 -54 54 -66 122 -162 122
-174 0 -5 12 -22 28 -38 15 -16 36 -43 47 -60 11 -17 41 -62 68 -100 26 -38
58 -85 71 -104 14 -19 36 -49 51 -67 52 -64 54 -127 5 -191 -12 -15 -36 -49
-55 -77 -19 -27 -51 -74 -72 -104 -21 -30 -49 -71 -63 -91 -25 -37 -64 -92
-115 -160 -15 -19 -40 -55 -56 -80 -52 -80 -77 -114 -104 -145 -29 -33 -70
-89 -112 -150 -15 -22 -41 -57 -58 -77 -16 -20 -46 -58 -65 -83 -19 -25 -49
-63 -66 -83 -17 -20 -41 -53 -54 -72 -28 -41 -68 -91 -128 -163 -24 -29 -57
-68 -73 -87 -15 -19 -48 -58 -71 -86 -24 -29 -61 -75 -83 -103 -53 -68 -119
-149 -154 -186 -54 -58 -336 -381 -373 -425 -20 -25 -60 -70 -90 -101 -29 -31
-123 -129 -208 -219 -155 -163 -477 -487 -692 -695 -176 -172 -763 -693 -973
-865 -133 -109 -181 -149 -272 -226 -42 -35 -64 -52 -150 -113 -26 -19 -65
-48 -85 -65 -21 -17 -60 -49 -88 -71 -28 -22 -67 -54 -88 -70 -20 -17 -55 -43
-77 -58 -95 -65 -112 -77 -150 -107 -107 -82 -133 -101 -165 -119 -19 -10 -44
-29 -55 -41 -11 -12 -37 -31 -57 -41 -20 -10 -41 -25 -45 -32 -4 -7 -29 -25
-54 -39 -25 -15 -52 -34 -59 -43 -8 -9 -35 -27 -60 -40 -25 -13 -52 -31 -60
-40 -7 -9 -32 -26 -54 -37 -23 -11 -56 -34 -74 -49 -18 -16 -39 -29 -46 -29
-7 0 -24 -11 -37 -24 -13 -13 -46 -36 -74 -51 -27 -15 -59 -35 -70 -45 -11
-10 -34 -25 -51 -33 -17 -9 -37 -23 -44 -32 -8 -9 -40 -30 -71 -46 -32 -16
-60 -33 -64 -39 -4 -6 -33 -24 -65 -40 -32 -16 -62 -35 -66 -41 -3 -6 -30 -22
-58 -34 -29 -13 -58 -30 -66 -40 -8 -9 -40 -30 -71 -46 -32 -16 -61 -34 -65
-40 -3 -6 -30 -22 -59 -35 -29 -12 -56 -28 -60 -35 -4 -6 -36 -24 -71 -40 -34
-16 -66 -34 -70 -40 -3 -6 -32 -22 -63 -36 -31 -14 -65 -33 -76 -43 -11 -11
-38 -26 -60 -36 -22 -9 -55 -27 -73 -41 -17 -13 -47 -29 -65 -35 -17 -6 -47
-22 -65 -35 -18 -13 -54 -34 -80 -45 -26 -11 -56 -29 -67 -39 -12 -10 -47 -28
-78 -38 -31 -11 -72 -31 -89 -44 -18 -14 -50 -30 -70 -36 -20 -7 -54 -23 -74
-37 -20 -14 -59 -34 -87 -44 -27 -11 -60 -28 -71 -39 -12 -12 -48 -30 -79 -40
-32 -11 -70 -29 -84 -41 -14 -11 -49 -27 -78 -35 -28 -9 -67 -27 -86 -40 -18
-14 -52 -30 -74 -36 -22 -6 -61 -24 -87 -40 -26 -17 -64 -35 -85 -41 -21 -5
-58 -23 -83 -38 -25 -16 -65 -34 -90 -40 -25 -6 -61 -22 -80 -36 -20 -13 -60
-31 -89 -40 -30 -8 -83 -31 -118 -50 -36 -19 -72 -34 -80 -34 -9 0 -42 -12
-74 -26 -32 -15 -66 -24 -75 -20 -14 5 -12 10 10 37 14 17 26 34 26 38 0 3 30
38 68 76 76 79 271 301 347 395 28 34 66 81 85 105 19 24 53 66 75 94 22 29
56 72 75 96 60 76 106 139 125 173 11 17 22 32 26 32 4 0 22 23 39 52 18 28
38 58 46 66 8 8 23 31 34 51 10 21 26 43 35 51 9 8 25 30 35 49 10 20 28 45
40 56 12 11 31 38 42 60 19 35 39 69 105 167 12 18 34 56 49 83 15 28 40 65
55 83 16 18 29 38 29 45 0 7 18 38 40 71 22 32 40 64 40 71 0 7 14 31 30 54
17 23 41 66 54 95 13 29 29 57 35 60 6 4 25 35 42 69 16 34 38 78 49 97 11 19
29 55 40 80 11 25 29 61 40 80 10 19 27 53 38 75 10 22 28 58 39 80 57 111
103 211 103 223 0 7 18 47 40 88 22 42 40 82 40 91 0 8 15 42 34 76 18 34 39
84 45 111 7 27 23 68 36 90 13 23 31 68 39 102 9 34 27 81 40 105 14 24 32 74
40 111 8 36 24 81 36 100 11 18 27 67 36 108 9 41 27 96 41 123 13 26 31 82
39 125 9 42 26 102 39 132 13 30 31 95 40 144 9 50 27 115 40 145 13 31 30
103 39 161 8 58 26 137 39 175 13 39 32 124 41 190 9 66 25 152 36 190 11 39
29 147 40 240 11 94 29 215 40 269 19 94 26 168 50 536 6 85 15 211 21 280 15
162 15 765 1 945 -6 77 -16 212 -22 300 -6 88 -15 221 -20 295 -5 74 -20 191
-34 260 -13 69 -30 183 -36 253 -6 70 -20 162 -31 205 -34 127 -37 143 -48
244 -6 54 -24 137 -40 185 -16 49 -34 126 -41 173 -6 46 -22 112 -35 146 -13
34 -31 102 -40 150 -9 48 -25 105 -37 127 -11 22 -28 82 -39 134 -10 51 -28
111 -39 134 -12 22 -30 77 -41 122 -11 45 -29 96 -39 112 -10 17 -26 62 -36
100 -9 39 -29 95 -44 125 -15 30 -32 78 -39 105 -7 28 -23 68 -36 90 -13 22
-31 67 -40 100 -9 33 -27 76 -40 96 -13 20 -30 62 -39 94 -8 31 -26 73 -39 93
-14 21 -32 60 -42 89 -9 28 -25 63 -36 77 -11 14 -28 50 -38 79 -11 30 -30 72
-44 93 -14 22 -30 57 -37 79 -7 22 -23 55 -37 72 -13 18 -30 51 -38 73 -8 22
-26 55 -39 73 -14 19 -32 53 -41 76 -8 24 -26 56 -39 72 -13 15 -32 50 -41 78
-8 27 -25 57 -37 67 -11 11 -31 42 -43 70 -13 28 -28 55 -34 58 -6 4 -25 34
-41 66 -16 32 -35 62 -41 66 -6 3 -22 30 -34 58 -13 29 -30 58 -40 66 -9 7
-27 35 -41 61 -13 26 -28 50 -33 54 -6 3 -24 33 -42 65 -17 33 -35 60 -40 60
-4 0 -20 21 -36 48 -15 26 -39 63 -55 82 -15 19 -28 39 -28 45 0 6 -18 33 -40
60 -104 131 -121 153 -187 250 -15 22 -41 57 -58 77 -16 20 -48 60 -70 88 -22
29 -56 71 -75 95 -19 24 -55 69 -80 101 -25 32 -56 69 -70 83 -14 14 -37 42
-52 61 -14 19 -52 62 -85 96 -32 34 -94 101 -138 149 -44 48 -146 154 -227
235 -144 144 -176 190 -130 190 42 -1 150 -33 184 -55 20 -13 58 -30 85 -36
26 -7 75 -26 108 -44 33 -18 76 -36 95 -40 19 -4 58 -20 85 -35 28 -16 70 -33
95 -40 25 -6 61 -22 80 -35 19 -14 61 -33 93 -44 32 -11 70 -29 84 -41 14 -11
49 -27 78 -35 28 -9 67 -27 85 -40 18 -13 57 -31 85 -40 29 -8 64 -24 78 -35
14 -12 52 -30 84 -41 32 -10 70 -28 85 -39 15 -11 51 -29 81 -40 29 -11 68
-31 87 -45 18 -13 49 -30 69 -36 20 -6 50 -22 68 -35 17 -13 56 -33 86 -44 30
-11 60 -27 67 -35 7 -8 37 -24 68 -35 30 -12 67 -29 81 -39 14 -10 53 -32 86
-49 116 -58 200 -104 220 -121 11 -10 35 -24 54 -31 18 -8 46 -24 61 -37 15
-12 48 -32 74 -43 26 -11 61 -30 79 -44 18 -13 42 -27 55 -31 12 -3 35 -17 51
-31 16 -13 51 -34 78 -46 26 -11 63 -34 81 -49 18 -16 39 -29 46 -29 8 0 36
-15 62 -33 27 -19 67 -40 89 -47 22 -7 63 -24 90 -39 46 -24 59 -26 180 -26
117 0 134 2 174 23 24 13 61 30 83 38 93 32 217 160 273 282 21 44 45 175 45
242 0 99 -35 259 -59 274 -6 4 -22 28 -36 54 -29 54 -130 149 -192 181 -23 11
-45 25 -48 31 -4 6 -30 22 -58 37 -29 14 -65 36 -82 48 -16 13 -40 26 -53 30
-12 3 -35 17 -51 31 -16 13 -51 34 -78 46 -26 11 -63 34 -81 49 -18 16 -39 29
-46 29 -8 0 -36 15 -62 33 -27 19 -69 44 -94 56 -25 12 -81 42 -125 66 -44 24
-105 56 -135 71 -30 15 -69 38 -86 50 -17 13 -50 31 -74 39 -25 9 -54 25 -66
36 -12 11 -45 29 -75 40 -30 11 -63 29 -74 39 -11 10 -44 28 -74 39 -29 11
-70 31 -90 44 -20 14 -54 30 -76 37 -22 7 -55 23 -72 37 -18 13 -51 30 -73 38
-22 8 -56 26 -77 40 -21 14 -61 32 -90 41 -28 8 -63 24 -77 35 -14 11 -51 29
-83 40 -32 11 -74 30 -93 44 -19 13 -55 29 -80 35 -25 6 -61 22 -80 35 -19 14
-61 33 -91 44 -31 10 -74 30 -95 44 -22 14 -55 28 -74 32 -19 4 -58 20 -86 35
-28 16 -78 36 -110 46 -32 9 -74 27 -94 40 -19 12 -55 28 -80 34 -25 6 -67 24
-95 39 -27 16 -77 36 -110 46 -33 9 -78 27 -100 40 -22 12 -65 28 -95 35 -30
7 -77 25 -105 40 -27 15 -75 33 -105 39 -30 7 -73 22 -95 36 -22 13 -69 31
-104 40 -35 9 -85 27 -110 40 -25 13 -76 31 -114 39 -37 9 -89 26 -115 40 -26
13 -72 29 -102 36 -30 7 -80 25 -110 40 -30 15 -85 33 -122 39 -36 6 -91 23
-121 37 -31 13 -88 32 -129 40 -40 8 -98 26 -128 40 -30 14 -93 32 -139 40
-46 9 -105 26 -131 39 -26 13 -85 30 -131 39 -46 8 -113 26 -149 39 -36 14
-106 32 -155 41 -50 8 -117 26 -150 39 -33 14 -104 32 -158 41 -54 9 -121 26
-149 37 -29 11 -99 27 -157 36 -58 8 -137 26 -176 39 -38 14 -117 32 -175 40
-58 8 -143 26 -190 39 -47 13 -141 31 -210 40 -69 9 -163 27 -210 40 -47 14
-150 32 -229 40 -79 9 -190 27 -245 40 -56 13 -172 31 -259 39 -86 9 -203 25
-260 35 -141 27 -162 29 -332 41 -82 6 -229 22 -325 35 -226 30 -253 32 -645
50 -181 9 -400 23 -485 31 -177 18 -1394 28 -1580 14z m975 -1205 c198 -3 428
-10 510 -15 83 -6 299 -15 480 -20 276 -8 344 -13 414 -30 143 -35 258 -49
440 -56 166 -5 203 -11 341 -49 30 -9 146 -22 257 -29 186 -12 205 -15 246
-39 24 -14 76 -33 115 -41 38 -8 88 -26 109 -40 21 -14 63 -30 93 -36 30 -6
71 -22 91 -36 21 -14 63 -32 96 -40 32 -9 74 -27 94 -40 20 -14 64 -33 98 -44
33 -10 75 -30 92 -44 17 -14 36 -26 42 -26 32 0 88 -23 121 -49 20 -16 53 -32
73 -36 21 -3 54 -19 73 -34 19 -15 57 -35 85 -44 27 -10 61 -28 75 -41 14 -13
43 -29 65 -36 22 -7 49 -21 61 -31 11 -10 47 -32 80 -48 33 -16 66 -36 73 -44
7 -9 29 -21 49 -28 20 -6 52 -25 70 -40 18 -16 49 -36 69 -44 19 -8 51 -28 69
-45 19 -16 41 -30 48 -30 7 0 31 -14 52 -31 22 -17 60 -42 87 -55 26 -13 47
-29 47 -34 0 -5 22 -21 48 -34 27 -13 54 -32 62 -41 8 -9 35 -27 61 -41 26
-13 52 -30 56 -37 4 -8 26 -26 48 -41 22 -14 60 -42 85 -62 25 -19 64 -49 88
-67 64 -47 132 -102 172 -136 104 -89 225 -192 281 -239 110 -91 214 -189 433
-409 210 -212 257 -261 328 -345 73 -85 140 -164 176 -207 20 -24 54 -62 75
-84 20 -22 37 -44 37 -48 0 -5 17 -26 38 -48 55 -59 89 -104 119 -156 14 -26
32 -49 40 -52 8 -3 22 -22 32 -42 11 -20 29 -45 41 -56 12 -11 30 -36 40 -56
10 -19 26 -42 35 -49 9 -8 28 -36 41 -62 14 -27 32 -52 40 -55 8 -3 26 -27 39
-52 13 -26 31 -54 41 -61 9 -8 25 -35 36 -60 11 -25 32 -58 48 -75 15 -16 31
-41 35 -55 4 -14 20 -42 37 -63 16 -20 35 -52 43 -70 7 -18 23 -41 34 -51 11
-10 27 -40 36 -66 9 -26 27 -57 40 -70 13 -13 32 -45 41 -72 9 -28 29 -64 44
-82 15 -17 33 -50 39 -73 6 -23 23 -56 37 -73 14 -17 32 -51 40 -76 7 -25 25
-59 39 -76 14 -16 30 -50 36 -74 6 -24 24 -62 40 -84 16 -22 34 -61 39 -87 6
-26 23 -63 37 -81 14 -19 32 -59 40 -90 8 -32 26 -71 39 -89 13 -17 31 -62 40
-99 8 -37 28 -86 44 -108 17 -25 31 -61 35 -91 4 -27 20 -73 36 -102 17 -28
35 -80 41 -115 5 -35 24 -87 40 -116 20 -34 33 -77 40 -125 6 -47 20 -90 38
-124 21 -36 32 -75 39 -133 6 -46 21 -105 35 -134 31 -67 33 -76 46 -181 7
-55 21 -111 36 -145 19 -41 29 -89 40 -187 7 -72 21 -151 30 -175 31 -83 43
-154 54 -308 7 -112 17 -180 36 -245 25 -87 26 -105 39 -576 12 -415 12 -557
0 -975 -13 -477 -14 -491 -39 -574 -19 -61 -30 -131 -41 -260 -11 -139 -19
-189 -39 -242 -25 -66 -46 -196 -46 -288 0 -29 -11 -67 -30 -108 -21 -44 -33
-91 -41 -155 -7 -63 -20 -112 -40 -156 -20 -44 -32 -92 -39 -154 -8 -70 -17
-103 -40 -142 -19 -33 -33 -77 -39 -119 -7 -45 -19 -82 -36 -108 -18 -26 -32
-69 -41 -119 -8 -49 -23 -93 -39 -117 -14 -21 -32 -69 -39 -105 -8 -38 -27
-87 -44 -112 -16 -24 -32 -64 -36 -87 -4 -24 -20 -63 -36 -88 -16 -25 -36 -74
-45 -109 -9 -36 -27 -78 -40 -93 -13 -15 -29 -52 -35 -82 -7 -34 -20 -62 -36
-77 -13 -13 -32 -48 -41 -79 -8 -30 -28 -69 -43 -86 -15 -17 -32 -51 -38 -76
-6 -24 -25 -61 -41 -82 -16 -20 -32 -54 -36 -75 -3 -22 -17 -49 -31 -62 -13
-12 -33 -47 -45 -78 -11 -31 -31 -67 -44 -81 -13 -14 -31 -43 -40 -65 -9 -22
-25 -49 -35 -60 -10 -11 -27 -38 -36 -60 -9 -22 -29 -55 -45 -72 -15 -18 -33
-51 -39 -73 -6 -21 -19 -45 -29 -52 -11 -8 -29 -31 -42 -53 -13 -22 -36 -56
-51 -75 -15 -19 -28 -40 -28 -47 0 -6 -18 -33 -40 -58 -22 -25 -40 -50 -40
-55 0 -4 -18 -30 -40 -56 -22 -27 -40 -54 -40 -61 0 -7 -15 -30 -34 -50 -18
-21 -36 -48 -40 -60 -4 -12 -17 -30 -29 -40 -13 -10 -33 -34 -47 -53 -13 -19
-37 -52 -54 -72 -17 -20 -47 -58 -66 -83 -35 -46 -92 -115 -155 -190 -19 -22
-112 -128 -206 -235 -158 -178 -213 -238 -257 -280 -9 -8 -25 -26 -36 -39 -12
-12 -30 -30 -40 -40 -10 -9 -52 -47 -92 -86 -63 -61 -156 -149 -293 -275 -21
-19 -64 -55 -95 -80 -99 -77 -204 -165 -274 -230 -23 -22 -47 -40 -52 -40 -6
0 -27 -15 -47 -33 -21 -18 -54 -43 -73 -55 -20 -11 -46 -32 -59 -46 -14 -14
-30 -26 -36 -26 -6 0 -27 -14 -46 -31 -19 -17 -49 -38 -67 -45 -18 -8 -49 -30
-69 -49 -21 -19 -42 -35 -48 -35 -6 0 -24 -14 -41 -31 -16 -17 -44 -37 -63
-45 -18 -8 -48 -27 -66 -43 -19 -16 -44 -32 -57 -36 -13 -4 -36 -20 -53 -35
-16 -15 -46 -33 -66 -39 -20 -6 -48 -25 -64 -41 -16 -16 -43 -35 -62 -41 -18
-6 -56 -26 -84 -45 -28 -19 -57 -34 -65 -34 -7 0 -28 -13 -47 -29 -18 -17 -58
-39 -89 -51 -30 -11 -63 -29 -73 -40 -10 -11 -37 -25 -59 -31 -23 -6 -58 -24
-80 -41 -21 -17 -57 -35 -80 -40 -22 -5 -57 -22 -77 -38 -20 -15 -56 -34 -80
-40 -24 -7 -71 -25 -104 -40 -51 -25 -80 -30 -200 -39 -143 -11 -198 -22 -249
-48 -18 -9 -91 -20 -191 -28 -121 -10 -183 -20 -246 -40 -71 -23 -114 -28
-274 -37 -144 -8 -211 -16 -280 -34 -140 -37 -243 -52 -460 -63 -110 -6 -256
-20 -325 -31 -233 -37 -472 -44 -1515 -43 -1022 1 -1194 6 -1453 43 -79 11
-264 27 -411 35 -221 12 -404 33 -431 50 -14 9 -181 26 -335 34 -138 8 -186
15 -253 36 -54 17 -132 31 -226 40 -92 9 -173 23 -223 38 -77 25 -228 47 -317
47 -31 0 -63 10 -108 33 -35 19 -75 37 -89 40 -14 4 -43 19 -65 33 -21 15 -59
34 -84 42 -25 8 -60 26 -77 39 -18 13 -52 30 -75 39 -23 8 -56 26 -75 40 -18
13 -51 31 -73 39 -22 8 -57 27 -78 43 -20 17 -53 35 -73 41 -20 6 -46 23 -59
36 -13 13 -39 30 -59 36 -20 6 -52 24 -71 39 -20 15 -54 37 -77 48 -23 12 -45
26 -48 32 -4 6 -33 24 -66 40 -32 17 -59 35 -59 40 0 5 -17 18 -37 29 -21 10
-47 29 -58 41 -11 12 -41 33 -66 45 -25 13 -51 31 -59 40 -7 9 -30 25 -49 35
-20 10 -45 28 -56 40 -11 12 -38 31 -60 42 -22 12 -55 32 -73 47 -17 14 -56
45 -85 68 -28 23 -68 56 -87 73 -60 53 -132 111 -159 128 -14 9 -44 31 -66 50
-123 103 -106 87 -401 367 -168 159 -214 204 -309 309 -44 48 -114 123 -155
166 -131 136 -181 194 -270 310 -71 93 -120 154 -160 199 -52 59 -147 184
-185 246 -11 17 -35 49 -52 69 -18 20 -33 42 -33 48 0 6 -17 34 -39 62 -21 28
-44 62 -51 76 -7 14 -19 29 -27 33 -7 4 -24 30 -37 56 -14 26 -32 54 -42 61
-9 8 -25 35 -36 59 -10 24 -32 59 -48 78 -17 18 -30 40 -30 47 0 7 -18 40 -40
72 -22 33 -40 64 -40 70 0 6 -13 29 -29 51 -16 23 -41 63 -55 90 -13 27 -31
55 -40 62 -8 7 -22 34 -31 61 -9 27 -25 60 -36 74 -11 15 -31 54 -45 88 -13
34 -32 71 -43 82 -10 12 -25 42 -34 68 -9 26 -27 62 -40 80 -14 18 -30 52 -36
74 -6 23 -23 59 -38 80 -14 22 -32 64 -40 94 -8 30 -28 78 -43 105 -16 28 -34
73 -40 100 -6 27 -22 64 -35 81 -13 17 -31 59 -40 94 -9 34 -27 80 -41 101
-13 22 -31 73 -39 114 -8 41 -25 94 -39 117 -13 24 -30 72 -37 108 -6 36 -25
90 -40 121 -15 31 -35 95 -43 142 -8 47 -25 105 -37 128 -12 24 -28 86 -36
139 -8 52 -25 119 -39 149 -16 35 -32 102 -44 185 -10 72 -28 158 -40 191 -11
33 -27 121 -35 200 -9 81 -26 178 -40 226 -21 69 -28 125 -40 309 -8 124 -24
302 -37 395 -20 155 -23 209 -23 605 0 394 3 452 23 610 13 96 29 272 37 390
10 165 20 240 40 320 14 57 33 167 40 244 9 96 22 164 39 212 14 38 32 122 40
185 10 74 24 133 40 169 15 33 30 92 37 149 8 61 20 109 36 139 13 25 32 86
42 137 11 50 30 114 43 141 14 27 31 78 37 114 7 36 23 84 37 107 13 23 31 73
39 112 8 39 26 88 39 109 14 20 32 65 39 98 8 34 26 81 40 105 14 24 31 64 37
89 7 25 27 72 45 105 18 33 36 76 39 95 4 19 20 54 36 78 16 24 36 67 44 96 9
29 24 61 35 70 11 10 28 44 37 74 8 31 26 69 39 84 13 15 31 49 40 77 8 27 25
57 35 66 11 10 29 43 41 74 11 31 29 65 39 76 11 11 30 46 44 77 14 31 30 59
37 63 6 4 20 28 32 54 11 25 32 62 47 81 15 19 31 45 35 58 4 13 20 38 36 57
16 18 36 50 45 71 9 21 29 54 45 73 16 20 29 41 29 48 0 7 15 30 34 50 18 21
41 54 51 73 10 19 31 50 46 68 16 18 29 37 29 42 0 5 18 30 40 55 22 25 40 50
40 55 0 5 18 30 40 55 22 25 40 50 40 55 0 5 18 30 40 57 21 26 55 68 75 93
20 25 52 66 73 92 96 121 130 162 162 199 19 21 52 58 72 82 126 143 539 564
733 746 97 91 359 313 415 351 19 13 47 36 62 50 52 49 157 129 222 167 16 10
48 34 70 54 23 20 55 44 73 53 18 9 36 22 40 30 4 7 31 25 59 39 27 14 56 33
64 42 7 9 27 23 44 32 17 8 42 26 56 39 14 12 43 30 65 39 22 9 51 27 65 40
14 13 41 31 61 39 20 8 50 26 65 39 16 14 47 32 69 41 22 10 51 28 65 40 14
13 43 29 65 36 22 7 51 23 65 36 14 12 47 32 73 43 26 11 62 32 80 45 18 13
50 29 72 35 22 6 58 23 80 39 22 16 56 34 75 41 19 6 51 23 70 36 20 14 57 31
84 39 26 8 65 26 86 41 21 14 60 32 88 40 28 7 65 24 84 38 18 14 57 30 86 36
29 6 70 22 91 37 22 14 65 32 98 40 32 9 77 26 100 40 23 13 71 31 106 39 36
8 88 27 116 41 44 23 69 28 193 36 142 9 189 15 403 56 65 12 192 25 310 31
129 7 250 20 340 36 120 22 187 27 475 35 184 5 393 14 464 20 72 5 207 10
300 11 94 1 209 4 256 9 47 4 103 6 125 4 22 -2 202 -6 400 -9z"/>
<path d="M19860 19820 c-63 -4 -146 -13 -185 -18 -38 -6 -124 -14 -190 -17
-154 -8 -257 -23 -320 -45 -65 -24 -84 -27 -189 -39 -54 -6 -109 -20 -143 -35
-30 -14 -92 -32 -139 -40 -48 -9 -102 -26 -126 -40 -24 -13 -72 -32 -107 -41
-34 -9 -79 -27 -100 -40 -20 -13 -54 -27 -76 -30 -63 -10 -108 -26 -140 -50
-16 -12 -51 -29 -78 -38 -26 -9 -59 -25 -74 -37 -14 -11 -50 -27 -79 -36 -29
-8 -63 -23 -77 -34 -13 -10 -50 -30 -83 -45 -32 -14 -68 -34 -79 -44 -11 -10
-36 -26 -55 -36 -19 -9 -46 -27 -60 -40 -14 -12 -41 -28 -60 -35 -19 -7 -46
-23 -60 -35 -14 -13 -44 -32 -67 -44 -23 -11 -44 -25 -48 -31 -3 -6 -30 -26
-58 -45 -143 -96 -313 -235 -555 -454 -82 -74 -356 -376 -437 -480 -22 -29
-54 -69 -70 -89 -17 -20 -43 -55 -58 -77 -55 -81 -77 -111 -102 -145 -39 -51
-91 -138 -119 -195 -13 -27 -33 -58 -44 -68 -11 -10 -29 -40 -41 -66 -11 -26
-27 -54 -35 -60 -8 -7 -25 -38 -36 -69 -12 -32 -32 -73 -45 -92 -14 -20 -31
-57 -39 -83 -8 -26 -25 -62 -39 -80 -13 -18 -32 -58 -41 -91 -10 -32 -26 -70
-37 -85 -11 -15 -28 -61 -37 -102 -10 -42 -29 -93 -42 -114 -12 -20 -29 -66
-36 -101 -8 -35 -25 -87 -39 -114 -16 -31 -31 -88 -40 -146 -8 -53 -26 -124
-40 -160 -18 -44 -29 -98 -36 -176 -6 -62 -21 -156 -34 -208 -36 -145 -45
-279 -45 -700 1 -430 8 -542 43 -686 14 -54 30 -151 36 -216 7 -83 17 -134 36
-180 14 -34 32 -104 39 -154 8 -52 25 -112 39 -140 13 -27 32 -84 41 -126 9
-42 27 -89 38 -103 12 -15 29 -63 40 -107 10 -44 28 -94 39 -110 12 -16 29
-55 39 -88 10 -32 29 -73 42 -92 14 -18 30 -53 37 -77 7 -25 24 -59 37 -77 13
-17 31 -54 39 -81 8 -28 22 -57 31 -64 9 -7 29 -39 44 -71 16 -32 40 -72 54
-89 14 -17 26 -36 26 -43 0 -7 14 -30 30 -51 17 -21 39 -58 50 -83 11 -24 32
-59 47 -78 16 -19 42 -51 58 -72 17 -20 43 -55 58 -77 80 -116 136 -189 187
-244 19 -21 69 -75 110 -122 120 -135 271 -283 475 -464 85 -76 146 -125 155
-125 5 0 30 -18 55 -40 25 -22 50 -40 54 -40 4 0 24 -16 44 -35 20 -19 41 -35
46 -35 6 0 31 -18 56 -40 25 -22 52 -40 60 -40 7 0 33 -15 58 -34 24 -19 54
-37 66 -41 11 -3 34 -17 50 -31 16 -13 53 -35 83 -48 29 -13 62 -33 72 -45 11
-12 43 -28 72 -37 28 -8 59 -23 69 -34 9 -10 45 -28 80 -40 34 -11 77 -32 96
-46 18 -13 52 -29 74 -35 22 -6 56 -22 76 -35 21 -14 65 -32 99 -40 34 -8 81
-25 104 -39 23 -13 74 -31 114 -40 40 -8 94 -26 120 -39 26 -13 88 -31 137
-40 50 -8 117 -26 151 -40 40 -16 98 -29 170 -36 60 -6 147 -22 194 -36 139
-39 259 -47 765 -46 501 0 609 7 780 48 55 13 139 28 187 33 96 11 159 26 200
47 14 7 68 20 119 29 54 8 112 25 141 40 27 14 82 32 122 40 41 7 98 27 127
43 30 16 66 32 81 36 15 3 47 23 71 44 101 85 139 130 191 226 l48 89 6 127
c3 75 0 160 -7 209 -11 74 -11 85 6 114 11 19 39 42 68 57 28 15 70 40 94 58
24 18 50 32 57 32 6 0 31 16 54 35 23 19 46 35 50 35 5 0 29 17 54 38 25 20
77 60 117 87 139 95 428 362 569 524 32 36 63 62 80 66 32 7 119 -20 200 -62
51 -26 61 -28 185 -28 123 0 132 1 175 27 25 14 65 32 88 38 49 13 191 131
229 191 12 19 33 48 47 65 15 18 33 51 41 75 9 24 26 55 39 69 13 14 33 47 45
75 12 27 28 57 37 66 8 9 25 44 39 79 14 35 32 71 40 80 8 9 23 41 34 72 10
31 30 73 44 94 14 22 30 63 36 92 6 29 23 70 37 92 15 22 33 70 40 107 8 37
25 86 39 108 13 23 29 73 36 111 6 38 24 98 39 134 17 40 33 101 40 159 7 51
23 125 36 163 25 75 39 166 49 323 3 55 13 132 21 171 27 136 34 231 35 475 0
244 -9 370 -37 503 -8 38 -19 137 -25 219 -8 120 -15 167 -39 239 -16 49 -34
128 -40 176 -7 52 -22 112 -40 152 -15 36 -33 95 -38 131 -6 36 -23 90 -38
120 -15 30 -33 82 -40 116 -8 35 -25 80 -38 100 -14 21 -30 61 -37 88 -6 28
-24 70 -40 95 -15 25 -37 70 -49 102 -11 31 -27 62 -35 68 -8 7 -21 34 -29 61
-9 27 -31 75 -51 107 -19 32 -35 63 -35 69 0 7 -13 27 -29 45 -15 18 -37 53
-48 78 -11 25 -28 52 -37 60 -10 8 -29 37 -42 65 -34 69 -88 153 -124 190 -16
17 -30 36 -30 42 0 6 -7 17 -17 24 -9 8 -31 37 -50 64 -62 93 -126 172 -199
248 -17 18 -71 77 -120 132 -102 113 -158 169 -350 342 -131 118 -233 202
-299 247 -91 61 -111 76 -140 101 -47 40 -125 92 -180 119 -27 13 -58 33 -69
44 -10 12 -39 29 -65 38 -25 10 -57 28 -71 40 -14 13 -43 30 -65 40 -22 9 -53
25 -68 36 -15 11 -51 28 -79 39 -28 10 -67 29 -87 43 -20 13 -62 32 -93 41
-32 9 -60 21 -63 26 -11 17 -64 39 -117 49 -29 6 -68 21 -88 35 -19 13 -69 32
-110 41 -41 9 -91 27 -111 41 -24 16 -66 29 -120 38 -46 7 -109 25 -139 39
-37 16 -95 30 -173 40 -64 9 -126 20 -136 26 -45 24 -147 41 -296 50 -88 6
-212 17 -275 25 -146 18 -412 26 -560 15z"/>
</g>
</svg>
